# xmcd
#
# Track frame offsets: 
#        182
#        14045
#        27607
#        40657
#        54652
#        67362
#        79510
#        96045
#        107060
#        125382
#        141845
#
# Disc length: 2104 seconds
#
# Revision: 1
# Processed by: cddbd v1.5.2PL0 Copyright (c) Steve Scherf et al.
# Submitted via: ExactAudioCopy v1.0b4
#
DISCID=9a08360b
DTITLE=Randy Travis - Best Of Disc 1
DYEAR=1993
DGENRE=Country
TTITLE0=If I Didn't Have You
TTITLE1=1982
TTITLE2=Heroes And Friends
TTITLE3=On The Other Hand
TTITLE4=Honky Tonk Moon
TTITLE5=Better Class Of Losers
TTITLE6=I Told You So
TTITLE7=Too Gone Too Long
TTITLE8=Hard Rock Bottom Of Your Heart
TTITLE9=Deeper Than The Holler
TTITLE10=Point Of Light
EXTD=YEAR: 1993
EXTT0=
EXTT1=
EXTT2=
EXTT3=
EXTT4=
EXTT5=
EXTT6=
EXTT7=
EXTT8=
EXTT9=
EXTT10=
PLAYORDER=
